<svg version="1.1" xmlns="http://www.w3.org/2000/svg" xmlns:xlink="http://www.w3.org/1999/xlink" width="388.74058" height="18.6283" viewBox="0,0,388.74058,18.6283"><g transform="translate(-47.0064,-22.5629)"><g data-paper-data="{&quot;isPaintingLayer&quot;:true}" fill-rule="nonzero" stroke="none" stroke-linecap="butt" stroke-linejoin="miter" stroke-miterlimit="10" stroke-dasharray="" stroke-dashoffset="0" style="mix-blend-mode: normal"><path d="M214.46057,24.14195v3.14743h-167.45417v-3.14743z" fill="#c8c8c8" stroke-width="NaN"/><path d="M144.24341,39.84838l10.43648,-9.7249h59.53538l-4.74386,9.31108c0,0 -52.00397,0.36552 -57.86989,0.40314c-0.95489,0.00612 -7.35812,0.01068 -7.35812,0.01068z" fill="#000000" stroke-width="0"/><path d="M136.41604,39.61119l8.77613,-8.77613h5.92982l-9.7249,8.77613z" fill="#000000" stroke-width="0"/><g data-paper-data="{&quot;index&quot;:null}"><path d="M435.74698,22.5629v3.14743h-167.45417v-3.14743z" fill="#c8c8c8" stroke-width="NaN"/><path d="M338.50998,38.26933c0,0 -6.40323,-0.00456 -7.35812,-0.01068c-5.86592,-0.03762 -57.86989,-0.40314 -57.86989,-0.40314l-4.74386,-9.31108h59.53538l10.43648,9.7249z" fill="#000000" stroke-width="0"/><path d="M341.35629,38.03214l-9.7249,-8.77613h5.92982l8.77613,8.77613z" fill="#000000" stroke-width="0"/></g><text transform="translate(54.81724,38.21762) scale(0.30814,0.30814)" font-size="40" xml:space="preserve" fill="#000000" fill-rule="nonzero" stroke="none" stroke-width="1" stroke-linecap="butt" stroke-linejoin="miter" stroke-miterlimit="10" stroke-dasharray="" stroke-dashoffset="0" font-family="Serif" font-weight="normal" text-anchor="start" style="mix-blend-mode: normal"><tspan x="0" dy="0">Spider-man</tspan></text><text transform="translate(392.83084,37.82468) scale(0.30815,0.30815)" font-size="40" xml:space="preserve" fill="#000000" fill-rule="nonzero" stroke="none" stroke-width="1" stroke-linecap="butt" stroke-linejoin="miter" stroke-miterlimit="10" stroke-dasharray="" stroke-dashoffset="0" font-family="Serif" font-weight="normal" text-anchor="start" style="mix-blend-mode: normal"><tspan x="0" dy="0">Venom</tspan></text></g></g></svg>