<svg version="1.1" xmlns="http://www.w3.org/2000/svg" xmlns:xlink="http://www.w3.org/1999/xlink" width="249.10623" height="127.10451" viewBox="0,0,249.10623,127.10451"><g transform="translate(-8.49235,-123.90108)"><g data-paper-data="{&quot;isPaintingLayer&quot;:true}" fill-rule="nonzero" stroke-linecap="butt" stroke-linejoin="miter" stroke-miterlimit="10" stroke-dasharray="" stroke-dashoffset="0" style="mix-blend-mode: normal"><path d="M255.5,179.5c0,20.15839 -17.68475,36.5 -39.5,36.5c-21.81525,0 -77.5,-19.34161 -94.5,-26.5c-9.45379,-3.98082 9.53428,-14.95078 33.34087,-25.74845c22.9779,-10.42182 50.44471,-20.75155 61.15913,-20.75155c21.81525,0 39.5,16.34161 39.5,36.5z" fill="#d6d6d6" stroke="#000000" stroke-width="1.5"/><path d="M100.96447,210.53553c-3.53553,-3.53553 0,-7.07107 0,-7.07107l2.90688,-2.71772c1.60925,-0.56073 3.15097,-1.378 4.82774,-1.68218c4.654,-0.84429 9.81232,0.28226 14.52441,-0.05691c11.2056,-0.80657 23.02681,-2.16425 33.69536,-5.75107c0,0 4.74342,-1.58114 6.32456,3.16228c1.58114,4.74342 -3.16228,6.32456 -3.16228,6.32456c-11.55148,3.82124 -24.18044,5.38906 -36.30464,6.24893c-4.67941,0.33187 -10.10463,-0.97083 -14.64785,0.26091l-1.09312,1.28228c0,0 -3.53553,3.53553 -7.07107,0z" fill="#d6d6d6" stroke="none" stroke-width="0.5"/><path d="M102.5,188c0,-5 5,-5 5,-5l2.50731,0.02433c3.24603,-0.64921 6.59171,-0.62131 9.88177,-0.98687c1.36596,-0.15177 2.63364,-0.85183 4,-1c4.6934,-0.50894 5.43967,0.05263 9.82359,1.11183c0,0 4.85071,1.21268 3.63803,6.06339c-1.21268,4.85071 -6.06339,3.63803 -6.06339,3.63803c-4.50305,-1.17693 -5.65341,-0.39073 -10.17641,0.11183c-3.36888,0.37432 -6.79444,0.34837 -10.11823,1.01313l-3.49269,0.02433c0,0 -5,0 -5,-5z" fill="#d6d6d6" stroke="none" stroke-width="0.5"/><path d="M164.02786,197.23607c-2.23607,-4.47214 2.23607,-6.7082 2.23607,-6.7082l2.65493,-1.27128c5.3098,-1.67434 10.06559,-0.95753 15.54617,-1.23012c0.48997,-1.05944 0.90747,-2.01113 1.44689,-2.98399c-2.29943,0.15943 -4.62321,0.23444 -6.90461,-0.06681c-6.60872,-0.87265 -9.95218,-3.01591 -14.78332,-7.1984c-3.4015,-2.9448 -7.41926,-4.48369 -7.7116,-9.6556c-0.87101,0.0298 -1.69714,0.12109 -2.43801,0.31145c-2.41759,0.62117 -4.47414,2.28565 -6.87541,2.96718c-3.61062,1.02476 -7.68888,1.56437 -11.39351,2.08097c-3.95194,0.55109 -8.31362,0.01873 -12.30546,0.01873c-8.99922,0 -18.59806,-0.03672 -27.20943,2.87171c-2.34084,0.75678 -4.62645,0.44852 -6.2928,1.69326c-0.02091,0.39294 -0.2383,2.43503 -2.49777,2.43503c-2.5,0 -2.5,-2.5 -2.5,-2.5l0.73223,-2.76777c0.93702,-0.84731 1.64799,-2.04875 2.81106,-2.54193c1.92015,-0.81421 4.19537,-0.37939 6.16614,-1.06201c9.17763,-3.02455 19.21442,-3.12829 28.79057,-3.12829c3.7761,0 7.96617,0.56523 11.69454,0.01873c3.45421,-0.50631 7.24079,-0.94972 10.60649,-1.91903c2.48027,-0.71431 4.61739,-2.4197 7.12459,-3.03282c1.38804,-0.33944 2.99715,-0.41103 4.65526,-0.37767c0.9869,-1.47162 2.55154,-2.26481 4.22759,-2.81684c-0.81271,-0.88913 -1.30847,-2.07285 -1.30847,-3.37237c0,-1.68453 0.83303,-3.17449 2.10962,-4.08041c-3.29166,-0.57405 -6.30792,-0.10389 -9.72054,-0.95705l-2.38908,0.03746c0,0 -5,0 -5,-5c0,-5 5,-5 5,-5l3.61092,0.03746c3.81977,0.95494 6.41283,0.43585 10.18999,1.0271c1.04141,0.16301 1.95469,0.86417 3,1c3.17293,0.41228 6.96599,-0.06456 10.19909,-0.06456c9.85462,0 20.13516,-0.72202 29.58114,2.25658c0,0 4.74342,1.58114 3.16228,6.32456c-1.58114,4.74342 -6.32456,3.16228 -6.32456,3.16228c-5.62055,-2.04583 -12.24124,-1.78566 -18.27844,-1.74738c0.51194,0.71479 0.85958,1.68556 0.85958,3.00396c0,5 -5,5 -5,5c-0.29553,0 -0.59105,0 -0.88658,0c-0.64891,3.99123 -4.83232,4.44916 -8.71548,5.8006c-0.29039,0.10106 -1.68169,0.60362 -3.05627,1.01697c1.59669,1.27038 2.94924,2.89017 4.58188,4.12622c3.75466,2.84261 8.76146,1.87196 13.07645,2.05621c1.64122,0.07008 3.46123,-0.38729 4.91342,0.3806c9.81054,5.18765 3.59752,14.51913 -0.87845,20.59293c-1.74469,0.65397 -3.40148,1.62537 -5.23406,1.9619c-4.53078,0.83203 -8.87402,-0.77384 -13.21977,0.80798l-1.34507,0.72872c0,0 -4.47214,2.23607 -6.7082,-2.23607zM89.72697,178.28628c-0.15977,0.14261 -0.31303,0.30222 -0.4592,0.48148z" fill="#d6d6d6" stroke="none" stroke-width="0.5"/><path d="M118,191c0,-2.5 2.5,-2.5 2.5,-2.5h1c4.82049,0 8.9487,-0.61169 13.62992,-2.0348c2.03207,-0.61776 5.6639,-2.54554 7.96962,-2.93292c0.24864,-0.04177 5.92959,-0.03228 6.40046,-0.03228c0,0 2.5,0 2.5,2.5c0,2.5 -2.5,2.5 -2.5,2.5c-1.86655,0 -3.75786,-0.33592 -5.59954,-0.03228c-2.5739,0.42437 -4.81962,2.02113 -7.31515,2.78098c-2.86419,0.87211 -5.74953,1.7303 -8.70292,2.22188c-0.22899,0.03811 -5.93855,0.02942 -6.38239,0.02942h-1c0,0 -2.5,0 -2.5,-2.5z" fill="#000000" stroke="none" stroke-width="0.5"/><path d="M199.89288,157.77954c1.92081,1.85211 4.51832,2.96513 6.3319,5.00016c2.50899,2.81536 4.82222,6.51182 7.75337,8.92706c1.96676,1.62059 4.72711,2.28079 6.96907,3.39881c0,0 0.89443,0.44721 0.44721,1.34164c-0.44721,0.89443 -1.34164,0.44721 -1.34164,0.44721c-2.39351,-1.20013 -5.24037,-1.90874 -7.34648,-3.64415c-3.0102,-2.48037 -5.41498,-6.24498 -7.97713,-9.14273c-1.76487,-1.99603 -4.34118,-3.07229 -6.22453,-4.88828c-1.97163,-1.90112 -3.1759,-3.67234 -5.45519,-5.32568c-1.1694,-0.38425 -2.37251,-0.67369 -3.58522,-0.8846l0.01869,-0.03725c-2.45412,-0.12502 -4.9536,0.00865 -7.36618,0.02637c2.24065,0.34443 4.27474,1.16506 6.26714,3.118c0,0 0.88388,0.88388 0,1.76777c-0.88388,0.88388 -1.76777,0 -1.76777,0c-3.289,-3.37116 -7.71101,-2.63388 -12.11612,-2.63388c-0.68117,0 -4.27403,0.04672 -4.65716,-0.18669c-0.71194,-0.43372 -0.66101,-1.5671 -1.22672,-2.17943c-1.11004,-1.20151 -3.73632,-0.63388 -5.11612,-0.63388h-1c0,0 -1.25,0 -1.25,-1.25c0,-1.25 1.25,-1.25 1.25,-1.25h1c2.42183,0 4.89157,-0.49807 6.88388,1.36612c0.48144,0.45048 0.25141,1.41763 0.77328,1.82057c0.3577,0.27619 0.89162,-0.16149 1.34284,-0.18669c1.33126,-0.07435 2.66667,-0.00002 4,0c1.60088,0.00003 3.08064,-0.01042 4.47538,0.11228c-0.24154,-0.12897 -0.4754,-0.3787 -0.47538,-0.8623c0.00003,-1 1.00003,-0.99997 1.00003,-0.99997h0.11862c2.90558,0.00007 5.89966,-0.1686 8.82814,0.05097l0.02538,-0.05059c0,0 0.21958,-0.00611 0.45577,0.0903c1.6629,0.1502 3.30181,0.43615 4.88828,0.96063c0,0 0.94868,0.31623 0.63246,1.26491c-0.08888,0.26665 -0.22773,0.43337 -0.38143,0.53526c1.31709,1.24499 2.4011,2.55447 3.82563,3.92805z" fill="#000000" stroke="none" stroke-width="0.5"/><path d="M126.51659,175.18142c-0.18142,-0.98341 0.80198,-1.16483 0.80198,-1.16483l0.55935,-0.10319c1.73589,-0.31874 4.08458,-0.54492 5.70974,-1.13152c2.31137,-0.83429 3.24297,-1.76593 5.91233,-1.78189c0,0 1,0 1,1c0,1 -1,1 -1,1c-2.55203,-0.01791 -2.98126,0.85599 -5.23557,1.66391c-1.71631,0.6151 -4.1987,0.87814 -6.02365,1.2163l-0.55935,0.10319c0,0 -0.98341,0.18142 -1.16483,-0.80198z" fill="#000000" stroke="none" stroke-width="0.5"/><path d="M129.5011,210.0469c-0.0469,-0.9989 0.952,-1.0458 0.952,-1.0458l1.58335,-0.07181c2.18005,-0.24173 3.4409,-1.4655 5.52332,-1.90791c2.41615,-0.51332 5.23602,0.80594 7.3801,-0.86527c1.08553,-0.84612 1.52443,-2.42436 2.71968,-3.10675c2.1516,-1.22838 7.17199,-0.77663 6.84045,-4.04936c0,0 0,-1 1,-1c1,0 1,1 1,1c-0.04978,0.84191 0.29404,1.80831 -0.14935,2.52573c-1.38306,2.23783 -5.81886,2.23791 -7.71471,3.2691c-1.89689,1.03176 -2.05965,3.31229 -4.60982,4.03527c-1.95226,0.55347 -4.11727,-0.25803 -6.05293,0.14808c-2.0752,0.43539 -3.47946,1.6587 -5.70097,1.93716l-1.72531,0.08355c0,0 -0.9989,0.0469 -1.0458,-0.952z" fill="#000000" stroke="none" stroke-width="0.5"/><path d="M78.73911,187.64889c-0.64889,-0.76089 0.112,-1.40977 0.112,-1.40977l1.61064,-1.32956c5.25859,-2.50487 11.01598,-5.56883 16.49261,-7.23923c4.11301,-1.25449 7.00794,-3.64319 11.54563,-3.67032c0,0 1,0 1,1c0,1 -1,1 -1,1c-4.29046,-0.03011 -7.06261,2.36769 -10.95611,3.58146c-5.36282,1.67181 -11.06249,4.64817 -16.21827,7.13191l-1.17673,1.04752c0,0 -0.76089,0.64889 -1.40977,-0.112z" fill="#000000" stroke="none" stroke-width="0.5"/><path d="M85.51515,160.17341c-0.17341,-0.98485 0.81144,-1.15826 0.81144,-1.15826l0.38895,-0.06849c4.20342,-0.73595 7.88141,-1.15555 12.19233,-0.69279c11.92016,2.29262 24.12162,-2.56778 35.78825,-0.23445c0,0 0.98058,0.19612 0.78446,1.1767c-0.19612,0.98058 -1.1767,0.78446 -1.1767,0.78446c-11.60148,-2.3203 -23.80089,2.54904 -35.69241,0.25121c-4.09987,-0.44111 -7.55889,-0.02175 -11.54912,0.68458l-0.38895,0.06849c0,0 -0.98485,0.17341 -1.15826,-0.81144z" fill="#000000" stroke="none" stroke-width="0.5"/><path d="M206.33376,219.98609c-0.98609,-0.16624 -0.81984,-1.15233 -0.81984,-1.15233l0.04198,-0.24904c0.16481,-0.79077 0.05099,-1.69715 0.49443,-2.37232c0.3845,-0.58544 1.3296,-0.57396 1.78829,-1.10329c0.3966,-0.45768 0.34087,-1.17396 0.64088,-1.70004c2.3096,-4.05 5.37112,-7.34743 7.10031,-11.81355c2.4132,-6.23278 2.24432,-13.34508 5.14043,-19.27287c2.0682,-4.13723 3.02601,-8.6452 4.01378,-13.06927c0.31429,-1.40766 1.25649,-1.75444 0.53541,-3.21587c-2.46803,-5.00202 -7.58166,-9.43554 -11.47653,-13.33041c0,0 -0.70711,-0.70711 0,-1.41421c0.70711,-0.70711 1.41421,0 1.41421,0c3.39207,3.39207 6.60499,6.65256 9.35266,10.60441c0.79537,1.14394 1.99831,2.03754 2.53517,3.32322c0.5761,1.37964 -0.08575,3.00681 -0.40854,4.46664c-1.01438,4.58759 -2.04634,9.23971 -4.17662,13.52853c-2.95435,5.75137 -2.69129,12.97144 -5.06489,19.10195c-1.76382,4.55556 -4.84646,7.97159 -7.23152,12.08827c-0.36497,0.62995 -0.38577,1.45488 -0.85908,2.00808c-0.41164,0.48113 -1.2825,0.41965 -1.65569,0.93118c-0.31065,0.42581 -0.11369,1.04801 -0.17053,1.57202l-0.04198,0.24904c0,0 -0.16624,0.98609 -1.15233,0.81984z" fill="#000000" stroke="none" stroke-width="0.5"/><path d="M247.52679,166.77008c0.22992,-0.97321 1.20313,-0.74329 1.20313,-0.74329l1.91869,0.50502c1.40647,0.87089 4.61229,1.22319 5.67114,2.12775c1.78485,1.52478 1.18028,4.6179 1.18,6.61c-0.00077,5.43202 -0.40501,10.96421 -2.18179,15.9212c-0.47892,1.33614 0.2022,3.8921 -2.00646,4.43116c-0.77361,0.18881 -1.00617,-1.31491 -1.72947,-1.64803c-0.64759,-0.29825 -2.65797,0.92929 -2.9539,1.07155c-1.30771,0.62866 -2.79622,0.9385 -4.24712,0.95392c-0.89105,-0.0054 -3.84897,0.07389 -4.55465,-0.38798c-1.08741,-0.7117 -1.32654,-2.35307 -2.41813,-3.05833c-0.34433,-0.22247 -0.93792,-0.49827 -1.55811,-0.80761c-0.13784,0.65744 -0.25291,1.34985 -0.3396,2.10791c-0.74409,1.71847 -2.50583,3.39172 -2.93394,5.17828c-0.7664,3.19827 -1.28778,7.17976 -3.94238,9.35593l-0.19711,0.96153c0,0 -0.34908,0.93709 -1.28617,0.58801c-0.93709,-0.34908 -0.58801,-1.28617 -0.58801,-1.28617l0.84882,-1.84626c2.26004,-1.59863 2.54607,-5.71301 3.22639,-8.26531c0.52189,-1.95795 2.1375,-3.36128 2.93923,-5.19865c0.1001,-0.97332 0.25676,-1.85026 0.45323,-2.68778c-0.18255,-0.15633 -0.32454,-0.31497 -0.40753,-0.47428c-0.99003,-1.90067 0.6162,-4.7745 1.08716,-6.5506c1.4145,-5.33441 3.22825,-11.48456 7.99102,-14.72498c-0.16582,-2.94303 -1.20123,-6.13599 -1.20123,-8.90306c0,0 0,-1 1,-1c1,0 1,1 1,1c0,2.5351 0.7839,5.30894 1.0844,7.99416c0.27353,0.00754 0.59397,0.12651 0.81003,0.55863c0.44721,0.89443 -0.44721,1.34164 -0.44721,1.34164c-0.08362,0.04119 -0.16635,0.0834 -0.24819,0.12661c-0.00742,0.70684 -0.07353,1.40115 -0.22326,2.07651c-0.50276,2.26775 -2.69157,5.52268 -4.09392,7.36221c-0.91488,1.20009 -1.78208,1.42379 -2.31029,2.87304c-0.45079,1.23683 -0.21337,2.64622 -0.60752,3.90225c-0.43382,1.38243 -0.84196,2.56364 -1.18293,3.7712c0.70274,0.32294 1.60022,0.44978 2.23428,0.88122c1.08339,0.73717 1.39703,2.29234 2.44625,3.07737c0.91422,0.68402 2.28342,0.0289 3.4252,0.03454c2.58002,0.03602 5.4625,-2.85593 7.97787,-1.86597c0.5185,0.20406 0.24552,1.24087 0.73917,1.49933c0.32376,0.16951 -0.00731,-0.73251 0.03133,-1.09592c0.07201,-0.67725 0.07018,-1.37997 0.30011,-2.02106c0.21941,-0.61177 0.82691,-1.04093 1.02058,-1.66133c0.3839,-1.2298 -0.14199,-2.59153 0.05577,-3.86459c0.62374,-4.01538 0.96466,-7.59131 0.98825,-11.72047c0.00255,-0.446 0.24286,-2.56703 -0.43259,-3.0505c-1.22987,-0.88032 -3.9403,-1.05333 -5.46522,-1.9827l-1.332,-0.26294c0,0 -0.97321,-0.22992 -0.74329,-1.20313zM242.52305,171.66523c0.00876,-0.03962 0.0172,-0.07935 0.02532,-0.11917c-1.85303,1.70353 -3.10508,4.027 -4.0441,6.48007c1.62428,-1.96908 3.47123,-3.88322 4.01877,-6.36089z" fill="#000000" stroke="none" stroke-width="0.5"/><path d="M177.61246,171.53927c0.46073,-0.88754 1.34827,-0.42681 1.34827,-0.42681l0.29896,0.15519c2.08666,1.09931 3.23794,2.34636 4.80385,4.08796c2.40245,3.12232 2.30905,7.95967 3.1552,11.81223c0.26414,1.20266 -0.04219,2.58138 0.56999,3.64974c0.61691,1.07661 2.11295,1.33113 3.01539,2.18276c2.57983,2.43459 5.28987,6.01859 8.9628,7.03593c1.19926,0.33218 2.48865,-0.03629 3.73307,-0.03629c0,0 1,0 1,1c0,1 -1,1 -1,1c-0.31752,0 -4.09741,0.01067 -4.26693,-0.03629c-4.00377,-1.10898 -6.98499,-4.85076 -9.80161,-7.50879c-0.50677,-0.47824 -3.10054,-2.1688 -3.37248,-2.63337c-0.39491,-0.67465 -0.22943,-1.54694 -0.37377,-2.31523c-0.49056,-2.61114 -1.05693,-5.17851 -1.65287,-7.74112c-0.51896,-2.2316 0.01056,-3.32699 -1.49425,-5.11614c-1.39249,-1.54789 -2.33635,-2.65574 -4.19987,-3.60633l-0.29896,-0.15519c0,0 -0.88754,-0.46073 -0.42681,-1.34827z" fill="#000000" stroke="none" stroke-width="0.5"/><path d="M245.62469,160.48357c-0.48357,-0.87531 0.39174,-1.35887 0.39174,-1.35887l0.79671,-0.44015c1.64329,-0.90532 2.83271,-1.20888 3.34266,-3.05654c-1.74079,-2.43585 -4.96724,-0.76362 -6.52596,-3.33481c-1.20126,-1.98154 1.06458,-5.96238 -0.29544,-7.85371c-0.50562,-0.70315 -2.63105,-0.43537 -3.0921,-0.46492c-2.36393,-0.15149 -4.01466,-0.65003 -6.027,-1.841c-0.54788,-0.32425 -1.38076,-0.42709 -1.90064,-0.76749c-0.60499,1.48593 -0.98092,3.17483 -2.10756,4.34104c0,0 -0.70711,0.70711 -1.41421,0c-0.70711,-0.70711 0,-1.41421 0,-1.41421c2.02227,-1.93203 1.56771,-5.07905 3.95583,-6.89197c0.4903,-0.37221 1.65864,-0.74886 2.70815,-1.00847c1.53885,-2.22402 1.08988,-5.09921 -0.15507,-7.37213c-0.66984,-0.97708 -0.63526,-2.48138 -1.59493,-3.17593c-1.05186,-0.76127 -3.07418,0.57069 -3.22833,1.66376c-0.35286,2.50215 1.07351,6.69035 -1.72381,8.36498c-2.20162,1.31801 -5.40612,-0.94054 -7.63623,0.91965c-1.70447,1.42174 -1.33471,3.04539 -1.8673,4.90134c-0.03475,0.1211 -1.75263,3.54481 -1.85677,3.75309c0,0 -0.44721,0.89443 -1.34164,0.44721c-0.89443,-0.44721 -0.44721,-1.34164 -0.44721,-1.34164c1.43731,-2.87462 1.65881,-7.21599 4.24596,-9.30751c2.65748,-2.14837 5.49102,0.05785 7.92777,-1.11815c0.75955,-0.36657 0.68266,-2.45131 0.69744,-2.86825c0.1163,-3.28095 -0.66894,-6.75396 3.65904,-7.19929c0.88296,-0.09085 1.90453,-0.35719 2.66069,0.10767c1.2513,0.76925 1.37709,2.60266 2.21235,3.8109c1.5037,2.83818 1.93348,5.23211 0.58496,8.07156c1.19359,-0.03495 3.84281,-0.04019 4.04879,0.07014c2.0675,1.10742 2.71328,7.76872 4.43899,2.75894l0.48739,-1.24368c0,0 0.36487,-0.93106 1.29593,-0.56618c0.93106,0.36487 0.56618,1.29593 0.56618,1.29593l-0.48739,1.24368c-0.62255,1.46259 -0.97922,3.526 -3.20615,3.40389c0.06293,0.06509 0.1235,0.13397 0.18155,0.20685c1.77861,2.23297 -0.59979,5.94661 0.45087,8.08795c0.39888,0.81295 2.73489,0.60465 3.08409,0.7014c1.58248,0.43843 2.78896,1.89895 3.67323,3.28262c-0.76926,3.18098 -1.5757,3.60891 -4.34698,5.1439l-0.79671,0.44015c0,0 -0.87531,0.48357 -1.35887,-0.39174zM236.33863,138.4646c-0.4628,0.50025 -1.19652,0.65627 -1.76359,1.03425c-0.29009,0.19336 -0.98887,0.38149 -0.79955,0.67423c0.24702,0.38196 0.93077,0.01069 1.3526,0.18093c1.1259,0.45438 2.16647,1.19649 3.36399,1.39662c1.25158,0.20917 2.94164,0.0063 4.37598,0.31152c-0.9223,-1.2904 -0.91422,-3.53029 -2.1605,-4.17429c-0.45083,-0.23296 -1.00918,0.11372 -1.51598,0.13965c-0.75893,0.03883 -1.69308,0.02893 -2.60945,0.12438c-0.07282,0.11013 -0.15309,0.215 -0.2435,0.31273z" fill="#000000" stroke="none" stroke-width="0.5"/><path d="M206.46767,234.95024c-0.90557,-0.08123 -2.08833,0.26105 -2.69578,-0.41545c-0.63222,-0.70407 -0.29353,-1.88705 -0.21877,-2.83036c0.21669,-2.73439 2.45582,-5.01919 3.56554,-7.41373c0.62766,-1.35435 0.57939,-3.23793 1.79663,-4.10195c0.70444,-0.50002 1.72314,-0.12584 2.58471,-0.18876c0,0 1,0 1,1c0,1 -1,1 -1,1c-0.47176,-0.06292 -1.03338,-0.47277 -1.41529,-0.18876c-0.94027,0.69924 -0.6582,2.25852 -1.15183,3.32124c-0.84024,1.80893 -2.15311,3.35217 -2.91717,5.17885c-0.38121,0.91139 -1.49877,2.17906 -0.78183,2.85872c0.31875,0.30217 0.86085,-0.19407 1.29938,-0.21872c2.022,-0.11366 3.6512,-0.56567 5.66931,-0.91489l1.25137,-0.03549c0.94098,-0.62188 1.82851,-1.30678 2.63294,-2.08674c0.9554,-0.92632 1.48529,-2.23105 2.43336,-3.16487c1.88172,-1.85344 4.13304,-3.31684 6.03,-5.2138c2.30453,-2.30453 3.5538,-4.42704 6.94975,-4.53553c0,0 1,0 1,1c0,1 -1,1 -1,1c-3.2742,-0.1541 -5.99641,4.73428 -8.41696,6.82747c-3.01968,2.61129 -5.56315,5.57242 -8.83825,7.87141c-0.08328,0.08383 -0.17841,0.14432 -0.27175,0.18798c-3.25786,2.21845 -7.08525,3.55441 -10.45748,5.65732c-2.98694,1.47079 -2.78166,4.76093 -2.98492,7.80412c-0.05704,0.85395 0.30613,1.87857 -0.21345,2.55866c-0.97403,1.27492 -3.37629,1.05689 -4.69405,1.07321c-3.33603,0.04131 -6.67304,0.01984 -10.00928,0.01984h-0.11387c0,0 -1,0 -1,-1c0,-1 1,-1 1,-1h0.11387c3.33031,0 6.66034,0.00054 9.99055,-0.01975c1.03468,-0.00631 2.53385,0.62179 3.09416,-0.24806c0.6359,-0.9872 -0.20092,-2.35517 -0.07008,-3.52213c0.37555,-3.34953 0.82524,-5.70934 3.89176,-7.40063c1.71095,-1.06857 3.60163,-1.96042 5.49247,-2.86959c-0.49665,0.04832 -1.00771,0.05861 -1.54505,0.01041z" fill="#000000" stroke="none" stroke-width="0.5"/><path d="M162.50031,179.02478c-0.02478,-0.99969 0.97491,-1.02447 0.97491,-1.02447l0.35955,-0.00891c3.04132,-0.07532 5.38093,-1.12845 8.11244,0.11418c0,0 0.89443,0.44721 0.44721,1.34164c-0.44721,0.89443 -1.34164,0.44721 -1.34164,0.44721c-1.90791,-1.09071 -4.77435,0.03696 -7.16846,0.09635l-0.35955,0.00891c0,0 -0.99969,0.02478 -1.02447,-0.97491z" fill="#000000" stroke="none" stroke-width="0.5"/><path d="M158.5,190c0,-1 1,-1 1,-1c4,0 10,0 14,0c0,0 1,0 1,1c0,1 -1,1 -1,1c-4,0 -8,0 -12,0h-2c0,0 -1,0 -1,-1z" fill="#000000" stroke="none" stroke-width="0.5"/><path d="M9.0303,194.88282c-0.88282,-0.4697 -0.41312,-1.35253 -0.41312,-1.35253l0.14851,-0.27912c2.19518,-3.93305 5.75721,-3.50196 9.77824,-2.6815c2.65523,0.54178 5.11062,1.76949 7.66794,2.54528c1.84568,0.5599 3.94022,0.59466 5.83,0.98976c4.00076,0.83645 7.45425,1.90197 11.56721,1.92963c9.24385,0.06293 18.85519,0.19156 28.0583,0.98295c2.66164,0.22888 5.14206,0.98749 7.83263,0.98271c0,0 1,0 1,1c0,1 -1,1 -1,1c-2.75332,-0.0045 -5.28451,-0.75586 -8.0041,-0.99008c-9.149,-0.78793 -18.7101,-0.9146 -27.90027,-0.97563c-7.9464,-0.05344 -16.06536,-2.69579 -23.62049,-4.9553c-3.17937,-0.95086 -7.70122,-2.39037 -9.44381,1.11159l-0.14851,0.27912c0,0 -0.4697,0.88282 -1.35253,0.41312z" fill="#000000" stroke="none" stroke-width="0.5"/><path d="M37.78179,176.69583c-0.69583,-0.71821 0.02238,-1.41404 0.02238,-1.41404l1.08404,-1.05026c0.54333,-0.51272 1.08666,-1.02544 1.62998,-1.53816c4.61789,-1.38326 9.49313,-0.08598 14.19315,-1.10619c3.25408,-0.70635 6.54172,-0.92212 9.82854,-1.62085c4.10125,-0.87188 7.75777,-1.96632 11.9601,-1.96632c0,0 1,0 1,1c0,1 -1,1 -1,1c-4.04947,0 -7.58135,1.08015 -11.54422,1.9226c-3.28442,0.69823 -6.57421,0.92752 -9.82402,1.61989c-4.46405,0.95106 -9.2478,-0.33047 -13.60904,0.88031c-0.41428,0.41505 -0.82857,0.8301 -1.24285,1.24515l-1.08404,1.05026c0,0 -0.71821,0.69583 -1.41404,-0.02238z" fill="#000000" stroke="none" stroke-width="0.5"/><path d="M186.62085,149.10787c-0.84561,-0.40086 -1.43041,-1.26228 -1.43041,-2.26029c0,-0.88833 0.46332,-1.66844 1.1615,-2.11187c-1.32348,-0.15428 -2.68886,-0.04945 -4.02243,-0.14616c-2.39386,-0.17359 -6.44245,0.80198 -8.6685,-0.00223c-0.06598,-0.02384 -0.13153,-0.04858 -0.19668,-0.07416l-0.00811,0.04867l-2.55132,-0.42522c-1.20503,-0.179 -2.12954,-1.21791 -2.12954,-2.47274c0,-1.25484 0.92451,-2.29374 2.12954,-2.47274l2.55132,-0.42522l0.00349,0.02093l0.04689,-0.0288c1.03066,-0.11695 2.09023,-0.08168 3.09197,-0.35085c0.36582,-0.0983 0.69689,-0.28422 1.02403,-0.48168c-2.29213,-0.93713 -4.59319,-1.84708 -7.02286,-2.42728c-0.41477,-0.01278 -0.81372,-0.06482 -1.14797,-0.24651c-0.3799,-0.07218 -0.76328,-0.13547 -1.15056,-0.18876l-0.0264,-0.01839l-0.0023,0.01378l-2.55132,-0.42522c-1.20503,-0.179 -2.12954,-1.21791 -2.12954,-2.47274c0,-1.38071 1.11929,-2.5 2.5,-2.5c0.11851,0 0.23509,0.00825 0.34921,0.0242l3.41669,0.42709l-0.00182,0.01454c0.01744,-0.0026 0.03489,-0.00517 0.05235,-0.0077c0.81559,-0.11839 1.61609,0.34668 2.43744,0.41435c3.50718,0.28895 8.04576,-0.11146 10.71625,2.97089c0.48519,0.56003 0.85669,1.09396 1.12762,1.60257c0.77976,0.16236 1.63551,0.05752 2.36047,0.38698c0.51842,0.2356 2.58706,2.45761 3.78677,2.37523c0.91588,-0.06289 1.71563,-0.69936 2.62277,-0.84038c4.0503,-0.62964 8.30108,0.41968 12.05246,1.8738c4.28758,1.66196 7.36674,4.28522 12.032,5.04767c0,0 2.46598,0.411 2.05499,2.87698c-0.411,2.46598 -2.87698,2.05499 -2.87698,2.05499c-5.04395,-0.85473 -8.41506,-3.56398 -13.02262,-5.31976c-2.97002,-1.13178 -6.33522,-2.07096 -9.54634,-1.58201c-0.40206,0.06122 -0.79397,0.19124 -1.18325,0.33344c1.18972,0.76754 2.54773,1.54604 2.47254,2.80641c-0.02142,0.35913 -0.14059,0.6731 -0.3274,0.95581h1.28321c1.38071,0 2.5,1.11929 2.5,2.5c0,0.61592 -0.22273,1.17982 -0.59205,1.61554c0.85938,0.3955 1.456,1.2642 1.456,2.27224c0,0.92661 -0.50412,1.73548 -1.25305,2.16731l-2.12059,1.27235l-1.71822,0.35627c0,0 -1.78406,0 -2.33797,-1.50711l-1.4883,-0.24805c-1.20503,-0.179 -2.12954,-1.21791 -2.12954,-2.47274c0,-0.68793 0.27785,-1.31095 0.72746,-1.76298z" fill="#da6500" stroke="none" stroke-width="0.5"/><path d="M156.49035,164.33412c0.4755,0.36083 0.86992,0.9594 0.86992,1.95239c0,2.5 -2.5,2.5 -2.5,2.5h-2.59186c-2.92615,-0.00885 -5.09248,0.31925 -7.90066,1.18425c-0.92456,0.28479 -1.79094,0.9714 -2.75633,0.90875c-0.07659,-0.00497 -0.15304,-0.01092 -0.22934,-0.01781l0.00851,0.05956l-2.98126,0.42589c-0.12902,0.02054 -0.26133,0.03121 -0.39613,0.03121c-1.20227,0 -2.20633,-0.84868 -2.44577,-1.97964c-1.44264,-0.01598 -2.81966,-0.17365 -3.78924,-0.69015c-0.08053,-0.0429 -0.16035,-0.08689 -0.23949,-0.13192l-0.019,0.05067l-3.40116,-1.27544c-0.9763,-0.34031 -1.67684,-1.269 -1.67684,-2.36132c0,-1.38071 1.11929,-2.5 2.5,-2.5h2.43586c7.47942,-1.26524 15.04908,-0.86395 22.61875,-0.86395c0,0 2.5,0 2.5,2.5c0,0.07117 -0.00203,0.14031 -0.00596,0.20749z" fill="#da6500" stroke="none" stroke-width="0.5"/><path d="M78.52636,199.56965c0.411,-2.46598 2.87698,-2.05499 2.87698,-2.05499l2.38706,0.40648c3.53106,-0.01261 7.06212,-0.00852 10.5932,-0.00852c0,0 2.5,0 2.5,2.5c0,2.5 -2.5,2.5 -2.5,2.5c-3.66855,0 -7.33707,0.00265 -11.0056,-0.00852l-2.79665,-0.45747c0,0 -2.46598,-0.411 -2.05499,-2.87698z" fill="#da6500" stroke="none" stroke-width="0.5"/><path d="M168.15081,206.02609c0.21229,0.2787 0.35975,0.59537 0.41811,0.96186c0.56423,3.54321 -4.36151,4.62396 -6.62672,5.23525c0.524,0.17588 1.02391,0.34025 1.47236,0.40077c2.80895,0.3791 5.78062,-0.38367 8.59823,-0.00543c3.40568,0.45718 5.54743,1.74645 8.97224,1.71769c3.96739,0.64898 7.93905,1.01748 11.92402,0.89915c-2.7753,-1.62186 -5.52817,-3.60549 -8.03202,-5.4924c-0.73469,-0.55367 -1.11972,-1.5214 -1.91022,-1.99197c-3.0407,-1.81008 -6.86951,-1.1414 -10.16976,-1.3911c-1.55775,-0.11786 -3.10573,-0.22031 -4.64625,-0.33382zM160.82864,200.34073c0.58764,0.22692 1.15667,0.52929 1.77567,0.62801c5.3116,0.84704 11.08338,-0.44632 16.41509,0.43198c6.14047,1.01152 10.03129,5.15937 14.8629,8.63173c1.9123,1.37433 4.42709,1.80789 6.24254,3.30783c0.02497,0.02063 0.0498,0.04141 0.07449,0.06232l0.00872,-0.01454l2.12059,1.27235c0.74893,0.43183 1.25305,1.24069 1.25305,2.16731c0,1.25484 -0.92451,2.29374 -2.12954,2.47274l-2.55132,0.42522l-0.00159,-0.00954l-0.02711,0.01415c-6.11337,0.86163 -12.22979,0.62249 -18.29952,-0.41109c-3.44976,-0.02547 -5.82751,-1.29611 -9.17076,-1.73812c-4.00209,-0.52911 -8.50225,1.12569 -12.2642,-1.01528c-2.13386,-1.21441 -5.25329,-2.02855 -5.91161,-4.39388c-0.50778,-1.82441 2.9258,-3.58018 5.89183,-4.55515c-0.0271,-0.00667 -0.05386,-0.01311 -0.08027,-0.01929c-4.40863,-1.03147 -11.29016,-0.84606 -15.24375,-3.05665c-0.02844,-0.0159 -0.05682,-0.03191 -0.08512,-0.04802l-0.00648,0.01943l-3.8331,-1.2777c-1.02156,-0.31417 -1.76412,-1.26534 -1.76412,-2.38994c0,-1.38071 1.11929,-2.5 2.5,-2.5c0.1348,0 0.26711,0.01067 0.39613,0.03121l2.98126,0.42589l-0.0017,0.01191l0.03045,-0.00764c1.83266,0.31186 3.60229,0.36934 5.35036,0.25573c0.05036,-0.1994 0.12816,-0.40976 0.23882,-0.63107c1.11803,-2.23607 3.3541,-1.11803 3.3541,-1.11803l1.03216,0.52431c0.22413,0.13448 0.44147,0.28414 0.6554,0.44125c1.01303,-0.21717 2.03291,-0.46354 3.06772,-0.72288c0,0 2.42536,-0.60634 3.0317,1.81902c0.09028,0.36114 0.11335,0.68194 0.08722,0.96642z" fill="#da6500" stroke="none" stroke-width="0.5"/><path d="M218.79273,150.64351c-2.5,0 -2.5,-2.5 -2.5,-2.5l0.12829,-0.07338c-0.44782,-2.78095 -1.81461,-1.47536 -4.3789,-2.27921c-3.90687,-1.22473 -6.68641,-3.36865 -10.67084,-4.28578c-1.95486,-0.44996 -3.79504,-1.38166 -5.77874,-1.67976c-2.00425,-0.30118 -3.99143,-0.1148 -5.98464,0.16004c1.49335,0.37003 2.87119,0.89746 4.03731,1.64682c1.19301,0.76663 2.995,1.28263 3.31722,2.66362c0.42455,1.81952 -0.64234,3.7257 -1.43122,5.41939c-0.24813,0.53273 -1.68086,0.34016 -1.51388,0.90363c0.2283,0.77042 1.98131,0.35415 2.12109,1.14543c0.10864,0.61503 -3.64235,3.82546 -0.24042,0.79083c0,0 2.5,0 2.5,2.5c0,2.5 -2.5,2.5 -2.5,2.5c-1.86081,-0.39522 -4.2124,0.13411 -5.58244,-1.18567c-0.8081,-0.77846 1.29726,-2.11937 1.02225,-3.20722c-0.215,-0.85051 -2.15938,-0.57004 -2.19867,-1.44643c-0.09784,-2.18224 2.86093,-3.60129 3.10256,-5.77232c0.03706,-0.33298 -0.6845,0.17713 -1.00254,0.07177c-0.70511,-0.2336 -1.24076,-0.88165 -1.96322,-1.05432c-3.15052,-0.75297 -6.90976,-0.81611 -10.3942,-0.80756c-1.09477,0.21018 -2.16888,0.29786 -2.85465,0.01048c-1.2062,-0.50546 -2.01589,-1.66667 -3.02383,-2.5c0,0 0,0 0,0l3.02383,-2.5c0.31161,0 0.63192,-0.00159 0.95976,-0.00399c-0.06477,-0.03552 -0.1298,-0.07146 -0.19501,-0.10776c0.24451,0.01735 0.49595,0.0662 0.74658,0.10316c0.3116,-0.00283 0.62911,-0.00597 0.95161,-0.00881c0.49596,-0.12484 1.21798,-0.46804 1.95642,-0.67662c-0.41814,-0.38314 -0.80402,-0.81151 -1.29431,-1.08958c-2.22728,-1.26323 -5.78003,-1.28528 -8.22775,-1.9817l-0.40988,-2.60767c0.62508,-0.52416 1.06077,-1.5265 1.87524,-1.57247c1.09487,-0.0618 2.04306,0.80537 3.02383,1.29593c3.06402,1.53255 4.61381,3.02016 8.11245,3.19853c0.652,0.03324 1.30447,0.02255 1.95707,-0.01725c0.61282,0.3111 1.16037,0.6683 1.35902,1.28068c0.33946,1.04647 0.55943,1.89945 0.67385,2.59709c0.71506,0.10903 1.41535,0.24437 2.09193,0.41202c-0.66842,0.09217 -1.33752,0.19428 -2.00817,0.29129c0.19682,2.95334 -2.1286,2.35524 -5.21951,3.00448c-0.71043,0.14922 -2.12081,0.60771 -3.49847,0.8722c-0.97983,0.00241 -1.93793,0.01048 -2.85465,0.01048l-3.02383,-2.5l0,0c1.00794,-0.83333 1.83898,-1.94636 3.02383,-2.5c0.23998,-0.11213 0.49824,-0.13065 0.76475,-0.11175c-1.33783,-0.74446 -2.75508,-1.63616 -3.60704,-2.06198c-0.98091,-0.49028 -2.20011,-0.57203 -3.02383,-1.29593c-1.636,-1.43775 -2.78162,-3.35219 -4.17243,-5.02828l6.50174,-0.01582c4.30153,1.23514 7.76799,1.44385 11.44367,4.20944c0.44365,0.3338 1.02067,0.5678 1.54916,0.83608c3.58971,-0.21894 7.18298,-1.31874 10.72035,-0.8328c5.21958,0.71703 10.05372,2.66433 14.65591,5.0071c2.44956,1.24696 6.87412,1.13704 8.83718,3.05c0.92129,0.89777 0.9786,2.37937 1.46789,3.56905l0.12829,1.65452c0,0 0,2.5 -2.5,2.5z" fill="#00b3d9" stroke="none" stroke-width="0.5"/><path d="M197.41819,156.18489c-1.56174,1.95217 -3.51391,0.39043 -3.51391,0.39043c-1.70619,-1.41229 -4.88558,-1.55905 -5.53471,-3.67666c-0.40391,-1.31764 0.51045,-2.67588 1.28337,-3.92047c-0.09243,-0.26103 -0.14273,-0.54198 -0.14273,-0.83468c0,-0.32974 0.06384,-0.64457 0.17983,-0.93281c-0.13858,-0.01304 -0.235,-0.02305 -0.27169,-0.023c-4.88163,0.00613 -9.86633,0.38409 -13.84686,-2.7053l-2.07474,-0.34579c-1.20503,-0.179 -2.12954,-1.21791 -2.12954,-2.47274c0,-1.15867 0.78824,-2.13324 1.85773,-2.41673c-0.41069,-0.23169 -0.87205,-0.55458 -1.41244,-1.00076c-0.05923,-0.04891 -0.11765,-0.09863 -0.17529,-0.14912l-0.0207,0.03105l-2.55959,-1.7064c-0.68925,-0.44514 -1.14551,-1.2201 -1.14551,-2.10163c0,-1.38071 1.11929,-2.5 2.5,-2.5h2.59186c2.56811,0.00782 8.52774,-0.04017 10.20342,2.29044c0.33177,0.46144 0.55474,0.97182 0.68215,1.50877c0.66061,-0.41103 1.17779,-1.08023 1.88834,-1.40845c5.8989,-2.72493 15.92644,-4.40421 22.22395,-2.23385c1.05821,0.3647 1.81668,1.32603 2.8185,1.82521c3.07199,1.5307 5.08776,2.36306 7.78375,4.59504c0.83918,0.69475 2.15925,0.90684 2.68784,1.85946c0.69708,1.25627 0.96116,2.79586 0.84367,4.23559c0.28268,0.02521 0.54155,0.09679 0.74296,0.28708h3.2585c1.38071,0 2.5,1.11929 2.5,2.5c0,1.38071 -1.11929,2.5 -2.5,2.5l-3.45581,0v-0.05011c-0.00547,-0.00057 -0.01094,-0.00114 -0.01641,-0.00172c-0.06308,0.01504 -0.12634,0.02948 -0.1898,0.04331c-1.80859,0.39418 -3.87228,-0.35651 -5.95266,-0.99456c-0.54133,0.40554 -1.12642,0.52256 -1.12642,0.52256l-2.23917,0.44651c-1.41817,0.23636 -2.80219,0.52365 -4.17314,0.83914c0.13786,0.31008 0.21447,0.65341 0.21447,1.01464c0,1.38071 -1.11929,2.5 -2.5,2.5c-0.11851,0 -0.23509,-0.00825 -0.34921,-0.0242l-3.41669,-0.42709l0.00612,-0.04893l-0.15508,0.02573c-0.77145,-0.19228 -1.5355,-0.41227 -2.29764,-0.63947c-0.33805,0.13473 -0.68118,0.22448 -1.04019,0.1947c-0.09384,-0.00778 -0.18752,-0.01659 -0.28105,-0.02637l0.00693,0.06925l-1.53589,0.15359c0.40275,0.63932 0.70554,1.65579 -0.21651,2.80834zM197.50562,145.05316c5.72609,-0.57919 11.29999,-2.44326 17.14457,-1.99521c0.95332,0.07308 1.89058,0.2607 2.8208,0.49214c-0.05038,-0.17698 -0.15013,-0.33827 -0.31278,-0.47923c-2.62225,-2.27246 -5.4609,-3.23417 -8.53536,-4.77689c-1.62385,-0.81482 -3.29038,-1.81408 -5.10463,-1.9105c-5.05886,-0.26885 -10.97718,0.21449 -15.64239,2.36581c-1.04575,0.48224 -1.81083,1.53034 -2.91673,1.85152c-0.73303,0.21289 -1.48473,0.21201 -2.24441,0.10863c-0.26422,0.38087 -0.56184,0.7356 -0.88656,1.0535c3.28167,0.56923 6.71281,-0.33081 10.3593,0.43107c1.70576,0.35639 4.07505,0.11808 4.97324,1.61136c0.23135,0.38464 0.33308,0.8062 0.34495,1.24781z" fill="#0092d9" stroke="none" stroke-width="0.5"/><path d="M213.33351,217.81405c-2.52911,1.84703 -7.26198,1.51366 -10.09192,1.51366c-3.82835,0 -8.03638,-0.54892 -11.7844,-1.35786c-3.59401,-0.7757 -6.67458,-2.24782 -10.42361,-2.53621c-7.24196,-0.55708 -14.37417,0.92778 -21.56399,0.80336c-3.55971,-2.07421 -6.34024,-2.10456 -4.19297,-7.55265c0.43964,-1.11548 1.90082,-1.46651 2.90817,-2.11676c0.40236,-0.25972 1.79588,-0.53698 1.31821,-0.57136c-3.13488,-0.22563 -6.03526,-1.26273 -9.07108,-1.83603c-1.24572,0.0543 -2.41256,-0.0262 -3.33527,-0.37902c-0.11006,-0.00265 -0.22044,-0.0042 -0.33115,-0.0046l-2.70465,0c-1.38071,0 -2.5,-1.11929 -2.5,-2.5c0,-1.38071 1.11929,-2.5 2.5,-2.5l3.02383,0c0.05389,-0.02079 6.56816,0.01752 6.7344,0.00629c7.0077,-0.47332 15.46067,-1.6305 22.37866,0.06743c8.03697,1.97257 15.28159,7.77074 23.76526,7.70814c4.58526,0.65504 8.20351,0.50191 12.3404,2.94183l0.69575,0.33964c0,0 0.82939,0.4147 1.22537,1.24409l1.48287,0.24714c1.20503,0.179 2.12954,1.21791 2.12954,2.47274c0,0.94657 -0.52607,1.77027 -1.30179,2.19469l-2.9817,1.70383l-0.0212,-0.0371c-0.06562,0.05031 -0.13185,0.09991 -0.19872,0.14875zM196.43927,213.67334c-0.1592,-1.17462 0.34893,-1.86481 0.90167,-2.26216c-5.16643,-0.56835 -10.18929,-2.82704 -14.92697,-4.80108c-3.11246,-1.29686 -6.16636,-3.00418 -9.61692,-3.27403c-2.95635,-0.2312 -6.15025,-0.32424 -9.29823,-0.28015c0.83759,1.34807 1.01019,3.21158 0.60795,4.72977c-0.35962,1.35733 -1.94458,2.04411 -3.06758,2.88705c-0.93322,0.7005 -2.5152,0.34117 -0.42085,0.69801c6.91996,-0.22296 13.78466,-1.46184 20.76967,-0.92454c5.16839,0.39756 10.01305,2.18592 15.05125,3.22713z" fill="#0092d9" stroke="none" stroke-width="0.5"/><path d="M153.66224,162.49058c0.28001,-0.108 0.5598,-0.2098 0.83943,-0.30368c0,0 2.37171,-0.79057 3.16228,1.58114c0.44176,1.32529 -0.10389,2.15688 -0.67138,2.63269c-0.69497,1.08985 -2.13231,1.08985 -2.13231,1.08985h-0.29624c-3.03239,1.21905 -6.01749,2.9246 -9.23875,3.42353c-5.73251,0.88789 -10.79639,-1.71557 -16.38357,-1.69562h-2.59186c0,0 0,0 0,0c-1.38071,0 -2.5,-1.11929 -2.5,-2.5c0,-1.18975 0.83109,-2.18539 1.9444,-2.43804l3.40507,-0.85127l0.00726,0.02905c0.03938,-0.01924 0.07887,-0.03826 0.11849,-0.05707c1.741,-0.82639 3.8088,-0.59083 5.71397,-0.88118c5.8202,-0.88698 11.42831,-0.01187 17.22937,-0.0294z" fill="#0092d9" stroke="none" stroke-width="0.5"/><path d="M123.23415,205.59633c0,2.5 -2.5,2.5 -2.5,2.5h-0.86395c-5.49319,0 -11.27485,1.17283 -16.72055,0.41325c-6.42578,-0.89629 -13.18279,-2.58693 -18.95557,-5.42891c0,0 -2.23607,-1.11803 -1.11803,-3.3541c1.11803,-2.23607 3.3541,-1.11803 3.3541,-1.11803c5.21836,2.6569 11.49141,4.08126 17.33042,4.93851c5.20163,0.76367 10.84449,-0.45071 16.10963,-0.45071h0.86395c0,0 2.5,0 2.5,2.5z" fill="#0092d9" stroke="none" stroke-width="0.5"/><path d="M71.14875,181.40567c0,-2.5 2.5,-2.5 2.5,-2.5h1.7279c6.34566,0 13.4448,0.83334 19.64901,-0.77693c3.72528,-0.96688 7.82547,-4.18232 11.19919,-5.87076c0,0 2.23607,-1.11803 3.3541,1.11803c1.11803,2.23607 -1.11803,3.3541 -1.11803,3.3541c-3.81512,1.90571 -7.97757,5.0947 -12.12752,6.22458c-6.61478,1.80096 -14.17454,0.95097 -20.95674,0.95097h-1.7279c0,0 -2.5,0 -2.5,-2.5z" fill="#0092d9" stroke="none" stroke-width="0.5"/><path d="M200.62162,137.31843c1.11943,-0.71183 2.44207,-0.05051 2.44207,-0.05051l0.09947,0.19317c2.55799,0.37114 4.01662,0.5106 5.54625,0.91807l0.06944,-0.4861l2.98745,0.42678c1.23096,0.15585 2.18283,1.2068 2.18283,2.48007c0,1.09231 -0.70054,2.02101 -1.67684,2.36132l-3.40116,1.27544l-0.00511,-0.01363l-0.03837,0.02947c-2.37285,0.79136 -6.69275,3.00015 -9.21225,2.2974c-0.16819,-0.04691 -0.33358,-0.10055 -0.49652,-0.16006l-0.01991,0.06968l-2.97069,-0.84877c-1.0288,-0.26875 -1.79933,-1.17646 -1.86219,-2.27374c-1.04267,0.24748 -2.02011,0.40747 -2.38098,0.51516c-1.03898,0.31008 -2.04337,1.18004 -3.1062,0.96553c-0.18945,-0.03824 -0.37614,-0.08472 -0.56045,-0.13832l-0.01761,0.1233l-2.98745,-0.42678c-1.23096,-0.15585 -2.18283,-1.2068 -2.18283,-2.48007c0,-1.16178 0.79247,-2.13847 1.86634,-2.41899l2.97069,-0.84877l0.02004,0.07013l0.16684,-0.11583c1.21522,-0.15439 2.43043,-0.30878 3.64565,-0.46317c0,0 0.4931,-0.06164 1.06709,0.08989c1.10742,-0.41837 2.22327,-0.79678 3.39211,-0.89943c1.42013,-0.12472 3.30313,-0.82249 4.4623,-0.19126z" fill="#d9bb00" stroke="none" stroke-width="0.5"/><path d="M160.56781,209.9161c0,-2.5 2.5,-2.5 2.5,-2.5l1.30963,0c-0.48378,-0.45589 -0.78579,-1.10256 -0.78579,-1.81976c0,-1.25484 0.92451,-2.29374 2.12954,-2.47274l2.55132,-0.42522l0.0243,0.14581c0.19049,-0.06663 0.38437,-0.12454 0.58225,-0.17216c0.67779,-0.16313 1.33205,0.19379 1.99392,0.52354c0.16027,-0.0247 0.32053,-0.0494 0.4808,-0.07409c0,0 1.62172,-0.23167 2.42717,0.99282c1.01817,0.28603 2.03693,0.56844 3.07858,0.74224c1.86558,0.31127 3.86905,-0.09136 5.64704,0.55366c0.09248,0.03355 0.18289,0.07109 0.27148,0.11218c0.61713,0.03447 1.23608,0.09851 1.85706,0.19812c1.97301,0.31648 3.66384,1.60885 5.55637,2.25014c0.71223,0.24135 1.59514,-0.06003 2.22974,0.34345l2.55132,0.42522c1.20503,0.179 2.12954,1.21791 2.12954,2.47274c0,1.38071 -1.11929,2.5 -2.5,2.5c-0.15625,0 -0.30915,-0.01433 -0.45746,-0.04176l-2.39134,-0.39856c-0.05577,0.00022 -0.1209,0.00055 -0.19438,0.00095c-0.50473,0.31956 -1.21008,0.26046 -2.00141,0.00787c-1.81819,0.00098 -4.05458,-0.02037 -4.42246,-0.14142c-0.2442,-0.08035 -2.39969,-1.85006 -3.67736,-2.66692c-5.33089,-0.08048 -10.57423,1.88754 -15.798,1.94389h-2.59186c0,0 -2.5,0 -2.5,-2.5z" fill="#d9bb00" stroke="none" stroke-width="0.5"/><path d="M143.50301,167.56146c-0.411,2.46598 -2.87698,2.05499 -2.87698,2.05499l-2.59186,-0.43198c0,0 -2.46598,-0.411 -2.05499,-2.87698c0.411,-2.46598 2.87698,-2.05499 2.87698,-2.05499l2.59186,0.43198c0,0 2.46598,0.411 2.05499,2.87698z" fill="#d9bb00" stroke="none" stroke-width="0.5"/><path d="M208.33344,141.66387c0,2.5 -2.5,2.5 -2.5,2.5h-1.29593c-3.77632,0 -7.4758,0.14491 -11.2104,-0.46599c0,0 -2.46598,-0.411 -2.05499,-2.87698c0.411,-2.46598 2.87698,-2.05499 2.87698,-2.05499c3.44488,0.58661 6.89922,0.39796 10.38841,0.39796h1.29593c0,0 2.5,0 2.5,2.5z" fill="#d97d00" stroke="none" stroke-width="0.5"/><path d="M182.84685,209.05214c0,2.5 -2.5,2.5 -2.5,2.5l-1.70693,-0.03402c-1.7279,-0.28798 -3.45581,-0.57597 -5.18371,-0.86395c0,0 -2.46598,-0.411 -2.05499,-2.87698c0.411,-2.46598 2.87698,-2.05499 2.87698,-2.05499c1.7279,0.28798 3.45581,0.57597 5.18371,0.86395l0.88493,-0.03402c0,0 2.5,0 2.5,2.5z" fill="#d97d00" stroke="none" stroke-width="0.5"/><path d="M136.80912,168.01441c0,-1.38071 1.11929,-2.5 2.5,-2.5c1.38071,0 2.5,1.11929 2.5,2.5c0,1.38071 -1.11929,2.5 -2.5,2.5c-1.38071,0 -2.5,-1.11929 -2.5,-2.5z" fill="#d97d00" stroke="none" stroke-width="0.5"/><path d="M203.2999,146.70718l-2.65017,0.48052c-0.86395,0 -1.7279,0 -2.59186,0c0,0 -2.5,0 -2.5,-2.5c0,-0.22588 0.02041,-0.43135 0.05754,-0.61825c-1.99217,-0.06805 -3.98235,-0.17687 -5.97128,-0.34607c-0.50641,-0.04308 -5.04572,0.08052 -5.28297,-0.01021c-0.09607,-0.03674 -0.19149,-0.07486 -0.2863,-0.11425l-0.01458,0.05834l-3.40507,-0.85127c-1.1133,-0.25265 -1.9444,-1.24829 -1.9444,-2.43804c0,-1.1246 0.74256,-2.07576 1.76412,-2.38994l2.53717,-0.84572l0.02324,0.06971l0.1647,-0.12428c2.63387,-0.44633 5.05477,-0.82054 7.58763,-1.67333c0,0 2.37171,-0.79057 3.16228,1.58114c0.11709,0.35126 0.16481,0.66784 0.16115,0.9523c0.39609,-0.0156 0.79549,-0.0362 1.19959,-0.06504c3.16873,-0.22612 6.03047,-0.8877 9.22684,-0.86878c1.31958,0.00781 2.75088,-0.48099 3.95847,0.05106c0.15411,0.0679 0.30485,0.14144 0.45262,0.21996l0.02952,-0.06888l2.97088,1.27323c0.91919,0.36945 1.56816,1.26922 1.56816,2.32056c0,1.16178 -0.79247,2.13847 -1.86634,2.41899l-2.97069,0.84877l-0.03333,-0.11666l-0.30672,0.18868c-1.00857,0.00829 -2.01623,0.01683 -3.02308,0.0231c0.16492,2.10797 -2.01709,2.54438 -2.01709,2.54438z" fill="#00d9ba" stroke="none" stroke-width="0.5"/><path d="M161.43176,209.9161c0,-0.24754 0.02451,-0.47057 0.06868,-0.67151c-0.32437,-0.25107 -0.58185,-0.56426 -0.74233,-0.96364c-0.72084,-1.79397 0.94129,-3.99377 2.37388,-5.29209c0.9478,-0.85896 2.54592,-0.26395 3.8236,-0.3245c2.57971,-0.12225 5.85052,-0.34547 8.41375,0.00852c1.3132,0.18136 3.01208,-0.09738 3.87091,0.91248c0.20741,0.24388 0.40154,0.47801 0.58288,0.70281c2.02451,0.15684 4.02943,0.38757 5.91363,0.54459c2.35126,0.19594 3.44842,-0.40065 5.84129,0.57742c2.53416,1.03583 6.62754,3.97203 4.06068,7.8579c-0.90403,1.36857 -3.26899,0.27329 -4.90348,0.40993c-1.92287,-0.32061 -3.88074,-0.45347 -5.77907,-0.89681c-2.45539,-0.57344 -4.5259,-1.98442 -6.97039,-2.42286c-0.49692,0.09592 -1.0118,0.20046 -1.52672,0.32986c0,0 -0.74934,0 -1.42752,-0.41025c-2.21758,0.18138 -4.6081,0.72387 -6.76285,0.67281c-0.92103,0.33229 -1.84837,0.72942 -2.78692,1.20141l-1.55001,0.26393c0,0 -2.5,0 -2.5,-2.5z" fill="#00d9ba" stroke="none" stroke-width="0.5"/><path d="M210.46358,141.61635c-0.38446,2.47026 -2.85472,2.0858 -2.85472,2.0858l-2.58391,-0.40968c-3.42155,-0.0008 -6.60156,0.4291 -9.99091,0.43942c0,0 -2.5,0 -2.5,-2.5c0,-2.5 2.5,-2.5 2.5,-2.5c3.50719,0.01252 6.81512,-0.42382 10.37652,-0.42453l2.96723,0.45427c0,0 2.47026,0.38446 2.0858,2.85472z" fill="#ccd900" stroke="none" stroke-width="0.5"/><path d="M187.59859,210.78005c0,2.5 -2.5,2.5 -2.5,2.5l-1.27495,-0.03402c-2.87533,-0.47982 -5.76391,-0.81723 -8.63952,-1.29593c0,0 -2.46598,-0.411 -2.05499,-2.87698c0.411,-2.46598 2.87698,-2.05499 2.87698,-2.05499c2.87533,0.47982 5.76391,0.81723 8.63952,1.29593l0.45295,-0.03402c0,0 2.5,0 2.5,2.5z" fill="#ccd900" stroke="none" stroke-width="0.5"/><path d="M137.2411,168.01441c0,-1.38071 1.11929,-2.5 2.5,-2.5c1.38071,0 2.5,1.11929 2.5,2.5c0,1.38071 -1.11929,2.5 -2.5,2.5c-1.38071,0 -2.5,-1.11929 -2.5,-2.5z" fill="#ccd900" stroke="none" stroke-width="0.5"/></g></g></svg>