<svg version="1.1" xmlns="http://www.w3.org/2000/svg" xmlns:xlink="http://www.w3.org/1999/xlink" width="201" height="242" viewBox="0,0,201,242"><defs><radialGradient cx="240" cy="180" r="17" gradientUnits="userSpaceOnUse" id="color-1"><stop offset="0" stop-color="#f4ff8b"/><stop offset="1" stop-color="#f4ff8b" stop-opacity="0"/></radialGradient></defs><g transform="translate(-138.5,-59)"><g data-paper-data="{&quot;isPaintingLayer&quot;:true}" fill-rule="nonzero" stroke-linejoin="miter" stroke-miterlimit="10" stroke-dasharray="" stroke-dashoffset="0" style="mix-blend-mode: normal"><path d="M257,180c0,9.38884 -7.61116,17 -17,17c-9.38884,0 -17,-7.61116 -17,-17c0,-9.38884 7.61116,-17 17,-17c9.38884,0 17,7.61116 17,17z" fill="url(#color-1)" stroke="#000000" stroke-width="0" stroke-linecap="butt"/><path d="M233.5,99l12,163" fill="none" stroke="#f4ff8c" stroke-width="0.5" stroke-linecap="round"/><path d="M148.5,174l173,9" fill="none" stroke="#f4ff8c" stroke-width="0.5" stroke-linecap="round"/><path d="M206.5,137l70,88" fill="none" stroke="#f4ff8c" stroke-width="1" stroke-linecap="round"/><path d="M194.5,200l74,-41" fill="none" stroke="#f4ff8c" stroke-width="1" stroke-linecap="round"/><path d="M257.5,131l-18,85" fill="none" stroke="#f4ff8c" stroke-width="1" stroke-linecap="round"/><path d="M201.5,181l91,-6" fill="none" stroke="#f4ff8c" stroke-width="1" stroke-linecap="round"/><path d="M201.5,157l92,43" fill="none" stroke="#f4ff8c" stroke-width="2" stroke-linecap="round"/><path d="M285.5,147l-81,66l70,-70" fill="none" stroke="#f4ff8c" stroke-width="2" stroke-linecap="round"/><path d="M229.5,60l16,240" fill="none" stroke="#f4ff8c" stroke-width="2" stroke-linecap="round"/><path d="M139.5,176l199,3" fill="none" stroke="#f4ff8c" stroke-width="2" stroke-linecap="round"/></g></g></svg>